# xmcd
#
# Track frame offsets: 
#        150
#        11337
#        19294
#        30712
#        38888
#        47339
#        53605
#        60957
#        75700
#        87465
#        97769
#        111768
#        119565
#        133148
#        142620
#
# Disc length: 2057 seconds
#
# Revision: 0
# Processed by: cddbd v1.5.2PL0 Copyright (c) Steve Scherf et al.
# Submitted via: ExactAudioCopyFreeDBPlugin 1.0
#
DISCID=b208070f
DTITLE=Sweet John Bloom - Weird Prayer
DYEAR=2015
DGENRE=Indie Rock
TTITLE0=Shapeshifter
TTITLE1=Born Witch
TTITLE2=Moving Target
TTITLE3=Bury Ruby
TTITLE4=Blood Moon
TTITLE5=Solicitor
TTITLE6=Tell Me
TTITLE7=Night Thing
TTITLE8=Weird Prayer
TTITLE9=New Identity Crisis
TTITLE10=Nothing Is Natural
TTITLE11=Cowboy
TTITLE12=Death - and Everything's Paid For
TTITLE13=Trust Me
TTITLE14=Aging In Place
EXTD=
EXTT0=
EXTT1=
EXTT2=
EXTT3=
EXTT4=
EXTT5=
EXTT6=
EXTT7=
EXTT8=
EXTT9=
EXTT10=
EXTT11=
EXTT12=
EXTT13=
EXTT14=
PLAYORDER=
